<?xml version="1.0" encoding="utf-8"?>
<!-- Generated by IcoMoon.io -->
<!DOCTYPE svg PUBLIC "-//W3C//DTD SVG 1.1//EN" "http://www.w3.org/Graphics/SVG/1.1/DTD/svg11.dtd">
<svg version="1.1" xmlns="http://www.w3.org/2000/svg" xmlns:xlink="http://www.w3.org/1999/xlink" width="21" height="24" viewBox="0 0 21 24">
<path fill="#000000" d="M17.143 12.857v-1.714q0-0.348-0.254-0.603t-0.603-0.254h-6.723l2.531-2.531q0.254-0.254 0.254-0.603t-0.254-0.603l-1.219-1.219q-0.241-0.241-0.603-0.241t-0.603 0.241l-6.067 6.067q-0.241 0.241-0.241 0.603t0.241 0.603l6.067 6.067q0.241 0.241 0.603 0.241t0.603-0.241l1.219-1.219q0.241-0.241 0.241-0.603t-0.241-0.603l-2.531-2.531h6.723q0.348 0 0.603-0.254t0.254-0.603zM20.571 12q0 2.799-1.379 5.163t-3.743 3.743-5.163 1.379-5.163-1.379-3.743-3.743-1.379-5.163 1.379-5.163 3.743-3.743 5.163-1.379 5.163 1.379 3.743 3.743 1.379 5.163z"></path>
</svg>
