<?xml version="1.0" encoding="utf-8"?>
<!-- Generated by IcoMoon.io -->
<!DOCTYPE svg PUBLIC "-//W3C//DTD SVG 1.1//EN" "http://www.w3.org/Graphics/SVG/1.1/DTD/svg11.dtd">
<svg version="1.1" xmlns="http://www.w3.org/2000/svg" xmlns:xlink="http://www.w3.org/1999/xlink" width="22" height="24" viewBox="0 0 22 24">
<path fill="#000000" d="M1.714 22.286h3.857v-3.857h-3.857v3.857zM6.429 22.286h4.286v-3.857h-4.286v3.857zM1.714 17.571h3.857v-4.286h-3.857v4.286zM6.429 17.571h4.286v-4.286h-4.286v4.286zM1.714 12.429h3.857v-3.857h-3.857v3.857zM11.571 22.286h4.286v-3.857h-4.286v3.857zM6.429 12.429h4.286v-3.857h-4.286v3.857zM16.714 22.286h3.857v-3.857h-3.857v3.857zM11.571 17.571h4.286v-4.286h-4.286v4.286zM6.857 6v-3.857q0-0.174-0.127-0.301t-0.301-0.127h-0.857q-0.174 0-0.301 0.127t-0.127 0.301v3.857q0 0.174 0.127 0.301t0.301 0.127h0.857q0.174 0 0.301-0.127t0.127-0.301zM16.714 17.571h3.857v-4.286h-3.857v4.286zM11.571 12.429h4.286v-3.857h-4.286v3.857zM16.714 12.429h3.857v-3.857h-3.857v3.857zM17.143 6v-3.857q0-0.174-0.127-0.301t-0.301-0.127h-0.857q-0.174 0-0.301 0.127t-0.127 0.301v3.857q0 0.174 0.127 0.301t0.301 0.127h0.857q0.174 0 0.301-0.127t0.127-0.301zM22.286 5.143v17.143q0 0.696-0.509 1.205t-1.205 0.509h-18.857q-0.696 0-1.205-0.509t-0.509-1.205v-17.143q0-0.696 0.509-1.205t1.205-0.509h1.714v-1.286q0-0.884 0.629-1.513t1.513-0.629h0.857q0.884 0 1.513 0.629t0.629 1.513v1.286h5.143v-1.286q0-0.884 0.629-1.513t1.513-0.629h0.857q0.884 0 1.513 0.629t0.629 1.513v1.286h1.714q0.696 0 1.205 0.509t0.509 1.205z"></path>
</svg>
