<?xml version="1.0" encoding="utf-8"?>
<!-- Generated by IcoMoon.io -->
<!DOCTYPE svg PUBLIC "-//W3C//DTD SVG 1.1//EN" "http://www.w3.org/Graphics/SVG/1.1/DTD/svg11.dtd">
<svg version="1.1" xmlns="http://www.w3.org/2000/svg" xmlns:xlink="http://www.w3.org/1999/xlink" width="24" height="24" viewBox="0 0 24 24">
<path fill="#000000" d="M12 4.5c-5.234 0-9.771 3.048-12 7.5 2.229 4.452 6.766 7.5 12 7.5s9.771-3.048 12-7.5c-2.229-4.452-6.766-7.5-12-7.5zM17.917 8.477c1.41 0.899 2.605 2.104 3.502 3.523-0.897 1.418-2.092 2.623-3.502 3.523-1.772 1.13-3.818 1.727-5.917 1.727s-4.145-0.597-5.917-1.727c-1.41-0.899-2.605-2.104-3.502-3.523 0.897-1.419 2.092-2.623 3.502-3.523 0.092-0.059 0.185-0.115 0.278-0.171-0.233 0.64-0.361 1.332-0.361 2.053 0 3.314 2.686 6 6 6s6-2.686 6-6c0-0.721-0.128-1.413-0.361-2.053 0.093 0.056 0.186 0.113 0.278 0.171v0zM12 9.75c0 1.243-1.007 2.25-2.25 2.25s-2.25-1.007-2.25-2.25 1.007-2.25 2.25-2.25 2.25 1.007 2.25 2.25z"></path>
</svg>
