<?xml version="1.0" encoding="utf-8"?>
<!-- Generated by IcoMoon.io -->
<!DOCTYPE svg PUBLIC "-//W3C//DTD SVG 1.1//EN" "http://www.w3.org/Graphics/SVG/1.1/DTD/svg11.dtd">
<svg version="1.1" xmlns="http://www.w3.org/2000/svg" xmlns:xlink="http://www.w3.org/1999/xlink" width="24" height="24" viewBox="0 0 24 24">
<path fill="#000000" d="M20.4 1.2h-16.8c-1.32 0-2.4 1.080-2.4 2.4v16.8c0 1.321 1.080 2.4 2.4 2.4h8.4v-8.4h-2.4v-2.97h2.4v-2.46c0-2.597 1.454-4.421 4.519-4.421l2.164 0.002v3.126h-1.436c-1.193 0-1.646 0.895-1.646 1.726v2.028h3.082l-0.682 2.969h-2.4v8.4h4.8c1.32 0 2.4-1.079 2.4-2.4v-16.8c0-1.32-1.080-2.4-2.4-2.4z"></path>
</svg>
