<?xml version="1.0" encoding="utf-8"?>
<!-- Generated by IcoMoon.io -->
<!DOCTYPE svg PUBLIC "-//W3C//DTD SVG 1.1//EN" "http://www.w3.org/Graphics/SVG/1.1/DTD/svg11.dtd">
<svg version="1.1" xmlns="http://www.w3.org/2000/svg" xmlns:xlink="http://www.w3.org/1999/xlink" width="19" height="24" viewBox="0 0 19 24">
<path fill="#000000" d="M5.143 18q0 1.071-0.75 1.821t-1.821 0.75-1.821-0.75-0.75-1.821 0.75-1.821 1.821-0.75 1.821 0.75 0.75 1.821zM12 19.647q0.027 0.375-0.228 0.643-0.241 0.281-0.629 0.281h-1.808q-0.335 0-0.576-0.221t-0.268-0.556q-0.295-3.067-2.471-5.243t-5.243-2.471q-0.335-0.027-0.556-0.268t-0.221-0.576v-1.808q0-0.388 0.281-0.629 0.228-0.228 0.576-0.228h0.067q2.143 0.174 4.098 1.078t3.469 2.431q1.527 1.513 2.431 3.469t1.078 4.098zM18.857 19.674q0.027 0.362-0.241 0.629-0.241 0.268-0.616 0.268h-1.915q-0.348 0-0.596-0.234t-0.261-0.569q-0.161-2.879-1.353-5.471t-3.1-4.5-4.5-3.1-5.471-1.366q-0.335-0.013-0.569-0.261t-0.234-0.583v-1.915q0-0.375 0.268-0.616 0.241-0.241 0.589-0.241h0.040q3.509 0.174 6.717 1.607t5.699 3.937q2.504 2.491 3.938 5.699t1.607 6.717z"></path>
</svg>
