<svg viewBox="0 -1 16 16" height="16" width="16" xmlns="http://www.w3.org/2000/svg"><path d="M14.7 4.34c.13-.32.55-1.59-.13-3.31 0 0-1.05-.33-3.44 1.3-1-.28-2.07-.32-3.13-.32s-2.13.04-3.13.32C2.48.69 1.43 1.03 1.43 1.03c-.68 1.72-.26 2.99-.13 3.31C.49 5.21 0 6.33 0 7.69 0 12.84 3.33 14 7.98 14S16 12.84 16 7.69c0-1.36-.49-2.48-1.3-3.35zM8 13.02c-3.3 0-5.98-.15-5.98-3.35 0-.76.38-1.48 1.02-2.07 1.07-.98 2.9-.46 4.96-.46 2.07 0 3.88-.52 4.96.46.65.59 1.02 1.3 1.02 2.07 0 3.19-2.68 3.35-5.98 3.35zM5.49 8.01c-.66 0-1.2.8-1.2 1.78s.54 1.79 1.2 1.79c.66 0 1.2-.8 1.2-1.79s-.54-1.78-1.2-1.78zm5.02 0c-.66 0-1.2.79-1.2 1.78s.54 1.79 1.2 1.79 1.2-.8 1.2-1.79-.53-1.78-1.2-1.78z"/></svg>