<?xml version="1.0" encoding="utf-8"?>
<!-- Generated by IcoMoon.io -->
<!DOCTYPE svg PUBLIC "-//W3C//DTD SVG 1.1//EN" "http://www.w3.org/Graphics/SVG/1.1/DTD/svg11.dtd">
<svg version="1.1" xmlns="http://www.w3.org/2000/svg" xmlns:xlink="http://www.w3.org/1999/xlink" width="22" height="24" viewBox="0 0 22 24">
<path fill="#000000" d="M8.571 16.286q0 0.536-0.167 1.098t-0.576 1.018-0.971 0.455-0.971-0.455-0.576-1.018-0.167-1.098 0.167-1.098 0.576-1.018 0.971-0.455 0.971 0.455 0.576 1.018 0.167 1.098zM17.143 16.286q0 0.536-0.167 1.098t-0.576 1.018-0.971 0.455-0.971-0.455-0.576-1.018-0.167-1.098 0.167-1.098 0.576-1.018 0.971-0.455 0.971 0.455 0.576 1.018 0.167 1.098zM19.286 16.286q0-1.607-0.924-2.732t-2.504-1.125q-0.549 0-2.612 0.281-0.951 0.147-2.103 0.147t-2.103-0.147q-2.036-0.281-2.612-0.281-1.58 0-2.504 1.125t-0.924 2.732q0 1.179 0.429 2.056t1.085 1.379 1.634 0.804 1.875 0.395 1.996 0.094h2.25q1.098 0 1.996-0.094t1.875-0.395 1.634-0.804 1.085-1.379 0.429-2.056zM22.286 13.929q0 2.772-0.817 4.433-0.509 1.031-1.413 1.781t-1.888 1.152-2.277 0.636-2.297 0.295-2.237 0.060q-1.045 0-1.902-0.040t-1.975-0.167-2.042-0.402-1.835-0.69-1.621-1.085-1.152-1.54q-0.83-1.647-0.83-4.433 0-3.174 1.821-5.304-0.362-1.098-0.362-2.277 0-1.554 0.683-2.92 1.446 0 2.545 0.529t2.531 1.654q1.969-0.469 4.138-0.469 1.982 0 3.75 0.429 1.406-1.098 2.504-1.621t2.531-0.522q0.683 1.366 0.683 2.92 0 1.165-0.362 2.25 1.821 2.143 1.821 5.33z"></path>
</svg>
