<?xml version="1.0" encoding="utf-8"?>
<!-- Generated by IcoMoon.io -->
<!DOCTYPE svg PUBLIC "-//W3C//DTD SVG 1.1//EN" "http://www.w3.org/Graphics/SVG/1.1/DTD/svg11.dtd">
<svg version="1.1" xmlns="http://www.w3.org/2000/svg" xmlns:xlink="http://www.w3.org/1999/xlink" width="24" height="24" viewBox="0 0 24 24">
<path fill="#000000" d="M20.4 1.2h-16.8c-1.32 0-2.4 1.080-2.4 2.4v16.8c0 1.321 1.080 2.4 2.4 2.4h16.8c1.32 0 2.4-1.079 2.4-2.4v-16.8c0-1.32-1.080-2.4-2.4-2.4zM11.981 18.628c3.671 0 6.646-2.977 6.646-6.647 0-0.406-0.052-0.797-0.124-1.181h1.897v8.659c0 0.458-0.372 0.828-0.832 0.828h-15.137c-0.46 0-0.832-0.37-0.832-0.828v-8.659h1.859c-0.073 0.384-0.125 0.775-0.125 1.181 0 3.671 2.977 6.647 6.647 6.647zM7.828 11.981c0-2.294 1.86-4.153 4.154-4.153 2.293 0 4.154 1.859 4.154 4.153s-1.861 4.154-4.154 4.154c-2.296 0-4.154-1.86-4.154-4.154zM19.568 7.2h-1.938c-0.458 0-0.83-0.374-0.83-0.83v-1.94c0-0.458 0.372-0.829 0.829-0.829h1.938c0.461 0 0.833 0.371 0.833 0.829v1.939c0 0.457-0.372 0.832-0.832 0.832z"></path>
</svg>
