<?xml version="1.0" encoding="utf-8"?>
<!-- Generated by IcoMoon.io -->
<!DOCTYPE svg PUBLIC "-//W3C//DTD SVG 1.1//EN" "http://www.w3.org/Graphics/SVG/1.1/DTD/svg11.dtd">
<svg version="1.1" xmlns="http://www.w3.org/2000/svg" xmlns:xlink="http://www.w3.org/1999/xlink" width="24" height="24" viewBox="0 0 24 24">
<path fill="#000000" d="M1.889 6.343c0.586 0.314 8.698 4.673 9 4.835s0.694 0.239 1.087 0.239c0.394 0 0.785-0.077 1.087-0.239s8.414-4.52 9-4.835c0.587-0.316 1.141-1.543 0.065-1.543h-20.303c-1.076 0-0.522 1.228 0.064 1.543zM22.336 8.987c-0.666 0.347-8.864 4.619-9.272 4.832s-0.694 0.239-1.087 0.239-0.679-0.025-1.087-0.239-8.56-4.487-9.226-4.834c-0.468-0.245-0.463 0.042-0.463 0.263s0 8.752 0 8.752c0 0.504 0.679 1.2 1.2 1.2h19.2c0.521 0 1.2-0.696 1.2-1.2 0 0 0-8.53 0-8.75s0.005-0.508-0.464-0.263z"></path>
</svg>
