<?xml version="1.0" encoding="utf-8"?>
<!-- Generated by IcoMoon.io -->
<!DOCTYPE svg PUBLIC "-//W3C//DTD SVG 1.1//EN" "http://www.w3.org/Graphics/SVG/1.1/DTD/svg11.dtd">
<svg version="1.1" xmlns="http://www.w3.org/2000/svg" xmlns:xlink="http://www.w3.org/1999/xlink" width="26" height="24" viewBox="0 0 26 24">
<path fill="#000000" d="M6 6q0-0.71-0.502-1.212t-1.212-0.502-1.212 0.502-0.502 1.212 0.502 1.212 1.212 0.502 1.212-0.502 0.502-1.212zM20.29 13.714q0 0.71-0.496 1.205l-6.576 6.589q-0.522 0.496-1.219 0.496-0.71 0-1.205-0.496l-9.576-9.589q-0.509-0.496-0.864-1.353t-0.355-1.567v-5.571q0-0.696 0.509-1.205t1.205-0.509h5.571q0.71 0 1.567 0.355t1.366 0.864l9.576 9.563q0.496 0.522 0.496 1.219zM25.433 13.714q0 0.71-0.496 1.205l-6.576 6.589q-0.522 0.496-1.219 0.496-0.482 0-0.79-0.188t-0.71-0.603l6.295-6.295q0.496-0.496 0.496-1.205 0-0.696-0.496-1.219l-9.576-9.563q-0.509-0.509-1.366-0.864t-1.567-0.355h3q0.71 0 1.567 0.355t1.366 0.864l9.576 9.563q0.496 0.522 0.496 1.219z"></path>
</svg>
