<svg viewBox="0 -60 1533 1388" xmlns="http://www.w3.org/2000/svg"><path d="M1532.58 148.047c-56.389 25.008-116.988 41.91-180.592 49.511 64.922-38.916 114.774-100.535 138.252-173.955-60.751 36.029-128.043 62.197-199.664 76.301C1233.217 38.795 1151.501.608 1061.068.608c-173.652 0-314.437 140.78-314.437 314.42 0 24.644 2.786 48.642 8.145 71.654C493.454 373.57 261.77 248.392 106.69 58.163c-27.065 46.439-42.57 100.451-42.57 158.074 0 109.084 55.514 205.325 139.882 261.708-51.546-1.631-100.025-15.775-142.422-39.325-.022 1.312-.022 2.63-.022 3.952 0 152.345 108.383 279.43 252.223 308.31-26.386 7.187-54.163 11.027-82.843 11.027-20.26 0-39.958-1.968-59.153-5.64 40.01 124.921 156.129 215.825 293.718 218.365-107.61 84.328-243.187 134.596-390.497 134.596A639.618 639.618 0 0 1 0 1104.84c139.148 89.212 304.425 141.262 481.99 141.262 578.343 0 894.602-479.114 894.602-894.613 0-13.634-.302-27.194-.908-40.676 61.429-44.331 114.74-99.711 156.896-162.766"/></svg>